

<!-- play button  -->

<svg xmlns="http://www.w3.org/2000/svg" viewBox="0 0 24 24" width="24" height="24" color="#000000" fill="none">
    <circle cx="12" cy="12" r="10" stroke="currentColor" stroke-width="1.5" />
    <path d="M9.5 11.1998V12.8002C9.5 14.3195 9.5 15.0791 9.95576 15.3862C10.4115 15.6932 11.0348 15.3535 12.2815 14.6741L13.7497 13.8738C15.2499 13.0562 16 12.6474 16 12C16 11.3526 15.2499 10.9438 13.7497 10.1262L12.2815 9.32594C11.0348 8.6465 10.4115 8.30678 9.95576 8.61382C9.5 8.92086 9.5 9.6805 9.5 11.1998Z" fill="currentColor" />
</svg>


<!-- previous button -->

<svg xmlns="http://www.w3.org/2000/svg" viewBox="0 0 24 24" width="24" height="24" color="#000000" fill="none">
    <path d="M8.06492 12.6258C8.31931 13.8374 9.67295 14.7077 12.3802 16.4481C15.3247 18.3411 16.797 19.2876 17.9895 18.9229C18.3934 18.7994 18.7654 18.5823 19.0777 18.2876C20 17.4178 20 15.6118 20 12C20 8.38816 20 6.58224 19.0777 5.71235C18.7654 5.41773 18.3934 5.20057 17.9895 5.07707C16.797 4.71243 15.3247 5.6589 12.3802 7.55186C9.67295 9.29233 8.31931 10.1626 8.06492 11.3742C7.97836 11.7865 7.97836 12.2135 8.06492 12.6258Z" stroke="currentColor" stroke-width="1.5" stroke-linejoin="round" />
    <path d="M4 4L4 20" stroke="currentColor" stroke-width="1.5" stroke-linecap="round" />
</svg>


<!-- next button  -->

<svg xmlns="http://www.w3.org/2000/svg" viewBox="0 0 24 24" width="24" height="24" color="#000000" fill="none">
    <path d="M15.9351 12.6258C15.6807 13.8374 14.327 14.7077 11.6198 16.4481C8.67528 18.3411 7.20303 19.2876 6.01052 18.9229C5.60662 18.7994 5.23463 18.5823 4.92227 18.2876C4 17.4178 4 15.6118 4 12C4 8.38816 4 6.58224 4.92227 5.71235C5.23463 5.41773 5.60662 5.20057 6.01052 5.07707C7.20304 4.71243 8.67528 5.6589 11.6198 7.55186C14.327 9.29233 15.6807 10.1626 15.9351 11.3742C16.0216 11.7865 16.0216 12.2135 15.9351 12.6258Z" stroke="currentColor" stroke-width="1.5" stroke-linejoin="round" />
    <path d="M20 5V19" stroke="currentColor" stroke-width="1.5" stroke-linecap="round" />
</svg>